<?xml version="1.0" encoding="UTF-8" standalone="no"?>
<svg
   xmlns:dc="http://purl.org/dc/elements/1.1/"
   xmlns:cc="http://creativecommons.org/ns#"
   xmlns:rdf="http://www.w3.org/1999/02/22-rdf-syntax-ns#"
   xmlns:svg="http://www.w3.org/2000/svg"
   xmlns="http://www.w3.org/2000/svg"
   xmlns:sodipodi="http://sodipodi.sourceforge.net/DTD/sodipodi-0.dtd"
   xmlns:inkscape="http://www.inkscape.org/namespaces/inkscape"
   width="700"
   height="700"
   viewBox="0 0 702.31025 701.40281"
   version="1.1"
   id="svg41"
   sodipodi:docname="brazil-national-football-team-logo.svg"
   inkscape:version="0.92.0 r15299"
   inkscape:export-filename="C:\Users\suitedoalex\sites\brazil-national-football-team-logo-0.png"
   inkscape:export-xdpi="561.73712"
   inkscape:export-ydpi="561.73712">
  <metadata
     id="metadata47">
    <rdf:RDF>
      <cc:Work
         rdf:about="">
        <dc:format>image/svg+xml</dc:format>
        <dc:type
           rdf:resource="http://purl.org/dc/dcmitype/StillImage" />
        <dc:title></dc:title>
      </cc:Work>
    </rdf:RDF>
  </metadata>
  <defs
     id="defs45" />
  <sodipodi:namedview
     pagecolor="#ffffff"
     bordercolor="#666666"
     borderopacity="1"
     objecttolerance="10"
     gridtolerance="10"
     guidetolerance="10"
     inkscape:pageopacity="0"
     inkscape:pageshadow="2"
     inkscape:window-width="1920"
     inkscape:window-height="1017"
     id="namedview43"
     showgrid="false"
     fit-margin-top="0"
     fit-margin-left="0"
     fit-margin-right="0"
     fit-margin-bottom="0"
     inkscape:zoom="0.33442325"
     inkscape:cx="235.62995"
     inkscape:cy="162.7338"
     inkscape:window-x="-8"
     inkscape:window-y="-8"
     inkscape:window-maximized="1"
     inkscape:current-layer="svg41" />
  <g
     id="surface1"
     transform="translate(8.4494937,757.62093)"
     inkscape:export-filename="C:\Users\suitedoalex\sites\brazil-national-football-team-logo.png"
     inkscape:export-xdpi="954.51361"
     inkscape:export-ydpi="954.51361">
    <path
       style="fill:#ffd100;fill-opacity:1;fill-rule:evenodd;stroke:none"
       d="m 123.75391,85.757812 c -6.32422,2.40625 -12.29297,5.511719 -17.98828,9.058594 C 91.972656,103.39063 79.792969,114.34766 67.035156,124.23438 55.214844,133.39453 43.132812,141.48047 29.238281,147 c 1.335938,2.20312 2.539063,4.48047 3.59375,6.85156 6.683594,15.05078 6.4375,34.15235 6.417969,50.24219 -0.02734,24.03125 0.09375,48.05469 0.125,72.08984 0.01563,11.92969 0.179688,24.125 1.257812,36.01563 0.371094,4.08594 1.191407,12.6914 3.066407,16.39453 l 0.175781,0.33203 0.128906,0.35156 c 5.464844,14.75391 14.78125,26.375 29.703125,33.23828 18.148438,7.21875 36.624999,15.03125 53.800779,24.17579 7.75391,4.1289 17.15235,9.5 24.39844,15.625 7.24609,-6.125 16.64844,-11.4961 24.40625,-15.625 17.17187,-9.14454 35.65234,-16.95704 53.80078,-24.17579 14.92188,-6.86328 24.23438,-18.48437 29.70313,-33.23828 l 0.1289,-0.35156 0.16797,-0.33203 c 1.88281,-3.70313 2.69922,-12.30859 3.07031,-16.39453 1.08203,-11.89063 1.2461,-24.08594 1.25782,-36.01563 0.0312,-24.03515 0.15234,-48.05859 0.12109,-72.08984 -0.0195,-16.08984 -0.26172,-35.19141 6.42578,-50.24219 1.04688,-2.37109 2.25391,-4.64844 3.59375,-6.85156 -13.89453,-5.51953 -25.98047,-13.60547 -37.79687,-22.76562 -12.75782,-9.88672 -24.9375,-20.84375 -38.73438,-29.417974 -5.69531,-3.546875 -11.66016,-6.652344 -17.98828,-9.058594 -9.10156,-1.734374 -18.74219,-3.03125 -28.02734,-2.871093 h -0.25391 C 142.5,82.726562 132.85547,84.023438 123.75391,85.757812"
       id="path2"
       inkscape:connector-curvature="0" />
    <path
       style="fill:#005aff;fill-opacity:1;fill-rule:evenodd;stroke:none"
       d="m 126.92969,96.625 c -5.61328,2.234375 -10.90625,5.12891 -15.96094,8.42578 -12.238281,7.98047 -23.046875,18.17969 -34.363281,27.37891 -10.484375,8.52734 -21.210938,16.05468 -33.535157,21.1914 1.183594,2.05078 2.257813,4.17188 3.1875,6.37891 5.929688,14.00391 5.714844,31.78516 5.699219,46.76172 -0.02734,22.36719 0.07813,44.72656 0.105469,67.09375 0.01563,11.10547 0.15625,22.45703 1.117188,33.52344 0.328124,3.79687 1.058593,11.8125 2.726562,15.2539 l 0.148438,0.3125 0.113281,0.32422 c 4.851562,13.73438 13.117187,24.55078 26.355469,30.94141 16.101562,6.71875 32.496092,13.98828 47.738282,22.49609 6.875,3.84766 15.21875,8.84375 21.64453,14.54297 6.43359,-5.69922 14.76953,-10.69531 21.65234,-14.54297 15.23828,-8.50781 31.63282,-15.77734 47.73438,-22.49609 13.24219,-6.39063 21.50781,-17.20703 26.35547,-30.94141 l 0.11718,-0.32422 0.14844,-0.3125 c 1.66797,-3.4414 2.39453,-11.45703 2.72266,-15.2539 0.95703,-11.06641 1.10547,-22.41797 1.12109,-33.52344 0.0273,-22.36719 0.13281,-44.72656 0.10547,-67.09375 -0.0195,-14.97656 -0.23437,-32.75781 5.69531,-46.76172 0.9336,-2.20703 2.00391,-4.32813 3.19141,-6.37891 -12.33203,-5.13672 -23.05078,-12.66406 -33.53906,-21.1914 -11.31641,-9.19922 -22.125,-19.39844 -34.35938,-27.37891 C 187.79687,101.75391 182.5,98.859375 176.88672,96.625 168.81641,95.011719 160.25781,93.796875 152.01953,93.945312 l -0.11328,0.0039 -0.10938,-0.0039 C 143.5625,93.796875 135.00391,95.011719 126.92969,96.625"
       id="path4"
       inkscape:connector-curvature="0" />
    <path
       style="fill:#029c55;fill-opacity:1;fill-rule:evenodd;stroke:none"
       d="m 127.89844,375.41016 c 0.79297,0.42968 1.57812,0.85937 2.36328,1.29687 6.875,3.84766 15.21875,8.84375 21.64453,14.54297 v -95.5 h -24.00781 v 79.66016"
       id="path6"
       inkscape:connector-curvature="0" />
    <path
       style="fill:#029c55;fill-opacity:1;fill-rule:evenodd;stroke:none"
       d="m 175.91797,96.429688 c -7.78906,-1.515626 -15.99219,-2.625 -23.89844,-2.484376 l -0.11328,0.0039 V 164.9453 h 24.01172 V 96.429688"
       id="path8"
       inkscape:connector-curvature="0" />
    <path
       style="fill:#009c54;fill-opacity:1;fill-rule:evenodd;stroke:none"
       d="m 51.953125,208.20703 c -0.0078,7.98047 0.0039,15.95703 0.01953,23.93359 H 82.277344 V 208.20703 H 51.953125"
       id="path10"
       inkscape:connector-curvature="0" />
    <path
       style="fill:#009c54;fill-opacity:1;fill-rule:evenodd;stroke:none"
       d="m 251.78906,256.08203 c 0.0195,-7.98047 0.043,-15.96094 0.0586,-23.94141 h -34.08204 v 23.94141 h 34.02344"
       id="path12"
       inkscape:connector-curvature="0" />
    <path
       style="fill:#1e175e;fill-opacity:1;fill-rule:evenodd;stroke:none"
       d="m 28.660156,206.75391 c -0.8125,-34.94141 -5.453125,-50.04297 -26.644531,-67.88672 53.695313,-2.02735 74.84375,-51.726565 123.136715,-66.000002 0.92188,-0.191407 1.83985,-0.371094 2.7461,-0.535157 v 17.785157 c -0.90235,0.167968 -1.81641,0.347656 -2.7461,0.535156 -34.421871,13.453126 -54.484371,48.105466 -91.578121,59.843746 10.742187,14.57813 12.320312,26.3711 12.160156,56.25782 l 0.03906,25.38671 H 29.105469 c -0.09766,-7.57421 -0.242188,-15.99218 -0.445313,-25.38671 z M 151.90625,70.644531 c 8.45312,-0.464843 17.37109,0.273438 26.75781,2.222657 48.29297,14.273437 69.44141,63.972652 123.13281,66.000002 -21.1875,17.84375 -25.82812,32.94531 -26.64453,67.88672 l -0.0273,1.45312 h -17.04297 l 0.004,-1.45312 c -0.16016,-29.88672 1.41797,-41.67969 12.15625,-56.25782 C 233.14857,138.75781 213.08607,104.10547 178.66419,90.652344 168.422,88.574219 159.50404,87.609375 151.90638,87.746094 Z M 274.71094,232.14062 c -0.8125,61.88282 1.21484,67.33204 -3.01563,86.34766 -1.98437,10.98438 -5.8164,20.875 -11.48828,29.67188 -10.16016,18.29687 -28.22656,30.89062 -54.19141,37.78515 -11.69531,4.75 -21.73046,9.84766 -30.09765,15.28906 v -18.72656 c 12.07422,-6.79687 28.04687,-14.34375 47.92969,-22.64062 14.01953,-6.71094 23.91015,-18.22266 29.67187,-34.53907 2.9375,-6.0664 4.42578,-23.22265 4.45703,-51.46484 l 0.0664,-41.72266 z M 166.07422,408.42187 c -0.22656,0.1875 -0.44922,0.375 -0.67578,0.56641 0.22656,-0.19141 0.44922,-0.37891 0.67578,-0.56641 z m -0.70703,0.59375 c -0.47266,0.39844 -0.9375,0.79688 -1.39453,1.19922 0.45703,-0.40234 0.92187,-0.80078 1.39453,-1.19922 z M 162.5,411.54297 c -0.21094,0.19531 -0.41797,0.38672 -0.62109,0.58203 0.20312,-0.19531 0.41015,-0.38672 0.62109,-0.58203 z m -1.32813,1.2539 c -0.19531,0.1875 -0.38281,0.375 -0.57421,0.5625 0.1914,-0.1875 0.3789,-0.375 0.57421,-0.5625 z m -0.64453,0.62891 c -0.1875,0.1875 -0.375,0.37891 -0.5625,0.57031 0.1875,-0.1914 0.375,-0.38281 0.5625,-0.57031 z m -2.47656,2.57813 c -0.17578,0.1914 -0.34766,0.38671 -0.52344,0.58203 0.17578,-0.19532 0.34766,-0.39063 0.52344,-0.58203 z m -0.56641,0.6289 c -0.17968,0.20313 -0.35937,0.40625 -0.53515,0.60938 0.17578,-0.20313 0.35547,-0.40625 0.53515,-0.60938 z m -0.57421,0.65625 c -0.55079,0.62891 -1.07813,1.26172 -1.58594,1.90235 0.50781,-0.64063 1.03515,-1.27344 1.58594,-1.90235 z m -1.64063,1.96875 c -0.16797,0.20703 -0.33203,0.41406 -0.49219,0.6211 0.16016,-0.20704 0.32422,-0.41407 0.49219,-0.6211 z m -0.50781,0.64063 c -0.16016,0.20312 -0.3125,0.40625 -0.46875,0.60937 0.15625,-0.20312 0.30859,-0.40625 0.46875,-0.60937 z m -1.02344,1.36328 c -0.14844,0.19531 -0.28906,0.39062 -0.42969,0.58594 z m -0.47266,0.64844 c -0.14453,0.19921 -0.28125,0.39843 -0.41796,0.59765 0.13671,-0.19922 0.27734,-0.39844 0.41796,-0.59765 z m -0.48828,0.69921 c -0.14062,0.19922 -0.27734,0.40235 -0.41406,0.60547 0.13672,-0.20312 0.27344,-0.40625 0.41406,-0.60547 z m -0.4414,0.64454 c -0.14453,0.21484 -0.28907,0.4375 -0.42969,0.65234 C 142.53906,409.44141 124.50391,396.78906 97.804688,385.94531 71.832031,379.05078 53.769531,366.45703 43.609375,348.16016 37.9375,339.36328 34.105469,329.47266 32.121094,318.48828 28.523438,302.28125 29.460938,295.92187 29.3125,256.08203 h 16.5 l 0.02734,17.78125 c 0.03516,28.24219 1.519531,45.39844 4.460937,51.46484 5.761719,16.31641 15.648438,27.82813 29.667969,34.53907 39.019534,16.27734 62.996094,29.67578 71.937504,40.18359 v 23.85547 c 0.14062,-0.21484 0.28516,-0.4375 0.42969,-0.65234"
       id="path14"
       inkscape:connector-curvature="0" />
    <path
       style="fill:#ffd100;fill-opacity:1;fill-rule:evenodd;stroke:none"
       d="m 78.167969,256.08203 v -23.94141 h -49.0625 c 0.121093,9.14063 0.179687,17.03516 0.207031,23.94141 h 48.855469"
       id="path16"
       inkscape:connector-curvature="0" />
    <path
       style="fill:#ffd100;fill-opacity:1;fill-rule:evenodd;stroke:none"
       d="m 266.73047,208.20703 h -43.13281 v 23.93359 h 51.11328 c 0.0937,-7.17578 0.22656,-15.125 0.41406,-23.93359 h -8.39453"
       id="path18"
       inkscape:connector-curvature="0" />
    <path
       style="fill:#ffd100;fill-opacity:1;fill-rule:evenodd;stroke:none"
       d="m 127.89844,161.86719 h 24.00781 V 70.644531 c -7.62109,-0.417969 -15.62109,0.140625 -24.00781,1.6875 v 89.535159"
       id="path20"
       inkscape:connector-curvature="0" />
    <path
       style="fill:#ffd100;fill-opacity:1;fill-rule:evenodd;stroke:none"
       d="m 175.91797,391.48828 v -87.70312 h -24.01172 v 120.12109 c 5.26953,-8.13281 13.26953,-15.6875 24.01172,-22.67188 v -9.74609"
       id="path22"
       inkscape:connector-curvature="0" />
    <path
       style="fill:#fffdff;fill-opacity:1;fill-rule:evenodd;stroke:none"
       d="m 102.42969,155.88281 h 98.95703 l -25.46875,28.55469 v 23.76953 h 23.83984 l 28.64063,-25.39453 v 98.66016 l -28.64063,-25.39063 h -23.83984 v 23.76563 l 25.46875,28.55468 h -98.95703 l 25.46875,-28.55468 V 256.08203 H 104.05859 L 75.421875,281.47266 V 182.8125 l 28.636715,25.39453 h 23.83985 V 184.4375 l -25.46875,-28.55469"
       id="path24"
       inkscape:connector-curvature="0" />
    <path
       style="fill:#009c54;fill-opacity:1;fill-rule:evenodd;stroke:none"
       d="m 151.90625,0.5 5.82812,17.996094 18.96485,-0.03516 -15.36328,11.082031 5.89843,17.972656 L 151.90625,36.375 136.58594,47.515625 142.48437,29.542969 127.11719,18.460938 146.08203,18.496094 151.90625,0.5"
       id="path26"
       inkscape:connector-curvature="0" />
    <path
       style="fill:#009c54;fill-opacity:1;fill-rule:evenodd;stroke:none"
       d="m 82.28125,15.714844 5.824219,18 18.968751,-0.03516 L 91.707031,44.761719 97.605469,62.738281 82.28125,51.589844 66.957031,62.738281 72.855469,44.761719 57.488281,33.679688 l 18.96875,0.03516 5.824219,-18"
       id="path28"
       inkscape:connector-curvature="0" />
    <path
       style="fill:#009c54;fill-opacity:1;fill-rule:evenodd;stroke:none"
       d="m 25.34375,59.148438 5.824219,17.996093 18.96875,-0.03516 L 34.769531,88.191406 40.664062,106.16406 25.34375,95.023438 10.023438,106.16406 15.917969,88.191406 0.550781,77.109375 19.515625,77.144531 25.34375,59.148438"
       id="path30"
       inkscape:connector-curvature="0" />
    <path
       style="fill:#009c54;fill-opacity:1;fill-rule:evenodd;stroke:none"
       d="m 221.53516,15.714844 -5.82422,18 -18.96485,-0.03516 15.36328,11.082031 -5.89453,17.976562 15.32032,-11.148437 15.32812,11.148437 -5.89844,-17.976562 15.36719,-11.082031 -18.96875,0.03516 -5.82812,-18"
       id="path32"
       inkscape:connector-curvature="0" />
    <path
       style="fill:#009c54;fill-opacity:1;fill-rule:evenodd;stroke:none"
       d="m 278.47656,59.148438 -5.82422,17.996093 -18.96875,-0.03516 15.36328,11.082031 -5.89453,17.972658 15.32422,-11.140626 15.32031,11.140626 -5.89453,-17.972658 15.36328,-11.082031 -18.96093,0.03516 -5.82813,-17.996093"
       id="path34"
       inkscape:connector-curvature="0" />
    <path
       style="fill:#211c5e;fill-opacity:1;fill-rule:nonzero;stroke:none"
       d="m 112.26953,234.48437 c 0,1.91797 0.11719,3.47657 0.34766,4.6836 0.23047,1.20312 0.66406,2.15625 1.30859,2.84765 0.63672,0.69141 1.51172,1.16407 2.61328,1.41016 1.10157,0.25 2.50782,0.37109 4.21485,0.37109 0.57031,0 1.16797,0 1.79297,0 0.62109,0 1.3125,0 2.07812,0 0.76563,0 1.64453,-0.008 2.64453,-0.0234 0.99219,-0.0195 2.15234,-0.0469 3.46875,-0.082 l -1.44141,7.39843 c -2.20703,0.0703 -3.96874,0.10547 -5.28124,0.10547 -1.32032,0 -2.56641,0 -3.73829,0 -3.16796,0 -5.84765,-0.29297 -8.03125,-0.875 -2.1914,-0.58984 -3.96093,-1.53906 -5.3164,-2.85156 -1.35156,-1.3125 -2.32031,-3.04297 -2.90625,-5.1875 -0.58594,-2.14844 -0.88281,-4.80078 -0.88281,-7.95703 v -4.41797 c 0,-3.12109 0.3125,-5.74219 0.93359,-7.87109 0.625,-2.13282 1.61328,-3.86329 2.96484,-5.19141 1.35157,-1.33203 3.1211,-2.28906 5.3125,-2.87109 2.1836,-0.58985 4.82813,-0.88282 7.92578,-0.88282 0.53125,0 1.1211,0 1.75782,0 0.64453,0 1.36328,0 2.16406,0 0.80078,0 1.70703,0.0117 2.72266,0.0273 1.01171,0.0195 2.17968,0.043 3.49609,0.082 l -1.44141,7.39453 c -1.3164,-0.0352 -2.69531,-0.0625 -4.13672,-0.0781 -1.4414,-0.0195 -2.83984,-0.0273 -4.1914,-0.0273 -1.74219,0 -3.15625,0.125 -4.24219,0.37109 -1.08594,0.25391 -1.94141,0.71094 -2.5625,1.38672 -0.625,0.67188 -1.03906,1.61328 -1.25391,2.82032 -0.21093,1.20703 -0.32031,2.78515 -0.32031,4.73437 z m 24.98438,-21.28515 h 17.45703 c 3.98828,0 6.89453,0.78125 8.72656,2.33984 1.83203,1.5625 2.75,3.92188 2.75,7.07813 v 0.58593 c 0,3.90235 -1.56641,6.51172 -4.69531,7.82422 1.8125,0.60157 3.22656,1.61328 4.24218,3.03125 1.01172,1.41797 1.52344,3.30078 1.52344,5.64063 v 0.96094 c 0,3.65234 -1.11328,6.30468 -3.33984,7.95312 -2.22266,1.65234 -5.45313,2.47656 -9.6875,2.47656 h -16.97656 z m 8.27734,31.18359 h 8.05859 c 1.88672,0 3.21485,-0.30859 3.97657,-0.92969 0.76562,-0.625 1.14843,-1.76562 1.14843,-3.43359 v -0.69141 c 0,-1.70312 -0.39843,-2.88281 -1.20312,-3.53906 -0.79688,-0.65625 -2.17578,-0.98437 -4.13672,-0.98437 h -7.84375 z m 0,-24.48047 v 8.25 h 7.41797 c 1.74219,0 2.97265,-0.32031 3.6875,-0.95703 0.70703,-0.64062 1.0625,-1.65234 1.0625,-3.03125 v -0.64062 c 0,-1.27735 -0.32813,-2.19922 -0.98438,-2.76953 -0.66015,-0.56641 -1.79297,-0.85157 -3.39062,-0.85157 z m 37.10547,31.1875 h -8.8086 v -37.89062 h 26.84766 l -1.38672,7.39453 h -16.65234 v 8.30469 h 15.85156 l -1.38672,7.39843 h -14.46484 v 14.79297"
       id="path36"
       inkscape:connector-curvature="0" />
    <path
       style="fill:#009c54;fill-opacity:1;fill-rule:nonzero;stroke:none"
       d="m 21.089844,443.82422 h 25.519531 c 5.828125,0 10.082031,1.13672 12.761719,3.42187 2.683594,2.28125 4.023437,5.73438 4.023437,10.34766 v 0.85937 c 0,5.70313 -2.292969,9.51954 -6.871093,11.4336 2.65625,0.88672 4.722656,2.36328 6.203124,4.4375 1.484376,2.07422 2.226563,4.82422 2.226563,8.25 v 1.39844 c 0,5.34375 -1.625,9.22265 -4.878906,11.63281 -3.25,2.41406 -7.972657,3.61719 -14.164063,3.61719 H 21.089844 Z M 33.1875,489.41797 h 11.785156 c 2.757813,0 4.695313,-0.45313 5.8125,-1.35938 1.121094,-0.90625 1.679688,-2.57812 1.679688,-5.01562 v -1.01563 c 0,-2.48828 -0.585938,-4.21093 -1.753906,-5.17578 -1.171876,-0.95703 -3.1875,-1.4375 -6.050782,-1.4375 H 33.1875 Z m 0,-35.78906 v 12.05859 h 10.851562 c 2.546876,0 4.34375,-0.46484 5.382813,-1.40234 1.039063,-0.92969 1.558594,-2.41016 1.558594,-4.4336 v -0.93359 c 0,-1.86719 -0.480469,-3.21485 -1.441407,-4.04688 -0.960937,-0.82812 -2.613281,-1.24218 -4.957031,-1.24218 z m 84.85156,9.25781 c 0,4.04687 -0.84765,7.27734 -2.53515,9.6914 -1.69141,2.41016 -4.15235,4.1836 -7.37891,5.32813 l 12.56641,21.31641 h -14.125 L 95.953125,479.77344 h -8.820313 v 19.44922 H 74.566406 v -55.39844 h 22.398438 c 3.746096,0 6.945316,0.30859 9.601566,0.92969 2.65234,0.62109 4.82422,1.60937 6.51562,2.95703 1.6875,1.35156 2.9375,3.10156 3.7461,5.25781 0.80468,2.14844 1.21093,4.75391 1.21093,7.81641 z m -12.64453,-1.32422 c 0,-1.45313 -0.15625,-2.65625 -0.46875,-3.61719 -0.3164,-0.96094 -0.80859,-1.71094 -1.48047,-2.2539 -0.67968,-0.54688 -1.57422,-0.92579 -2.69531,-1.13282 C 99.632812,454.35156 98.238281,454.25 96.574219,454.25 h -9.441407 v 15.40625 h 9.441407 c 1.664062,0 3.058593,-0.10547 4.175781,-0.3125 1.12109,-0.20703 2.01563,-0.59375 2.69531,-1.16406 0.67188,-0.57032 1.16407,-1.33985 1.48047,-2.29688 0.3125,-0.96094 0.46875,-2.1914 0.46875,-3.69922 z m 57.6875,24.27734 h -19.98047 l -4.37109,13.38282 h -12.95313 l 20.05469,-55.39844 h 15.14063 l 20.14062,55.39844 h -13.50391 z m -16.85547,-10.03515 h 13.73438 l -6.94532,-20.6211 z m 68.61719,-9.26172 c 2.70312,0.46484 4.96484,1.11719 6.78516,1.94531 1.82421,0.83203 3.28125,1.88281 4.37109,3.15234 1.09375,1.27344 1.875,2.77344 2.34375,4.51172 0.46875,1.74219 0.69922,3.75 0.69922,6.03516 v 1.16406 c 0,2.80078 -0.36328,5.19922 -1.08985,7.19922 -0.73046,1.99609 -1.95312,3.65234 -3.66796,4.98047 -1.71875,1.32422 -3.98047,2.29297 -6.78907,2.91406 -2.80859,0.625 -6.27343,0.9375 -10.3789,0.9375 -1.19922,0 -2.44922,0 -3.75,0 -1.30078,0 -2.7461,0 -4.33203,0 -1.58594,0 -3.37891,-0.0117 -5.38672,-0.0391 -2,-0.0234 -4.27344,-0.0625 -6.82422,-0.12109 l 1.94922,-10.42579 c 4.10937,0.10547 7.60937,0.15625 10.49609,0.15625 2.88672,0 5.55469,0 8,0 1.71875,0 3.13672,-0.0898 4.25781,-0.27343 1.11328,-0.17969 2,-0.47657 2.64844,-0.89063 0.65234,-0.41406 1.09375,-0.97656 1.32813,-1.67578 0.23437,-0.69922 0.35156,-1.59766 0.35156,-2.68359 0,-0.98438 -0.0664,-1.81641 -0.19531,-2.48828 -0.12891,-0.67579 -0.41797,-1.23438 -0.85938,-1.67579 -0.44141,-0.4414 -1.03906,-0.80468 -1.79687,-1.08984 -0.75,-0.28125 -1.75391,-0.52734 -3.00391,-0.73437 l -8.19141,-1.40235 c -3.01953,-0.51953 -5.49218,-1.17969 -7.41406,-1.98828 -1.92578,-0.80078 -3.44922,-1.82812 -4.56641,-3.07031 -1.12109,-1.2461 -1.88671,-2.72266 -2.30468,-4.4375 -0.41407,-1.71094 -0.6211,-3.70703 -0.6211,-5.98828 v -1.25 c 0,-2.48828 0.36328,-4.69141 1.09375,-6.61328 0.72266,-1.91797 1.92188,-3.55079 3.58594,-4.90235 1.66406,-1.34765 3.83984,-2.37109 6.51563,-3.07422 2.67968,-0.69922 5.94531,-1.04687 9.79687,-1.04687 1.40625,0 2.78516,0 4.13672,0 1.35547,0 2.79687,0 4.33203,0 1.53516,0 3.19922,0.0117 4.99219,0.0391 1.79687,0.0273 3.83984,0.0664 6.1289,0.11719 L 225.53516,454.25 c -4.0625,-0.10547 -7.50782,-0.15625 -10.34375,-0.15625 -2.83594,0 -5.34766,0 -7.53125,0 -1.5586,0 -2.85938,0.0898 -3.90235,0.27344 -1.03906,0.17968 -1.84765,0.46484 -2.41797,0.85156 -0.57422,0.39453 -0.97656,0.92578 -1.21093,1.59766 -0.23047,0.67187 -0.34766,1.50781 -0.34766,2.48828 0,0.88281 0.0625,1.63672 0.19141,2.25781 0.13281,0.62109 0.39062,1.14453 0.78125,1.55859 0.39062,0.41407 0.94921,0.76563 1.67578,1.05078 0.73047,0.28516 1.69531,0.52735 2.88672,0.73829 z m 36.45703,-22.71875 v 55.39844 h -12.875 v -55.39844 z m 24.83203,0 v 44.58594 h 26.14844 l -2.10938,10.8125 h -36.91796 v -55.39844 h 12.8789"
       id="path38"
       inkscape:connector-curvature="0" />
  </g>
  <g
     transform="translate(384.25143,200.5412)"
     id="surface1-5">
    <path
       inkscape:connector-curvature="0"
       style="fill:#ffd100;fill-opacity:1;fill-rule:evenodd;stroke:none;stroke-width:1.29731858"
       d="m -69.621383,-29.932415 c -8.204521,3.121672 -15.947898,7.150456 -23.336524,11.751877 -17.893883,11.1235099 -33.694823,25.3382666 -50.245753,38.164492 -15.33472,11.883632 -31.00897,22.373673 -49.0346,29.534258 1.73314,2.85815 3.29398,5.8126 4.66224,8.88866 8.67075,19.52565 8.35148,44.306478 8.32615,65.180138 -0.0354,31.17619 0.12156,62.34223 0.16216,93.52348 0.0202,15.4766 0.23311,31.29781 1.63179,46.72375 0.48143,5.30076 1.54563,16.46478 3.97811,21.26893 l 0.22804,0.43074 0.16723,0.45609 c 7.08964,19.14052 19.176,34.21678 38.53441,43.12064 23.54432,9.36501 47.514293,19.50032 69.796753,31.3637 10.059296,5.3565 22.252069,12.32453 31.65255,20.27059 9.400492,-7.94606 21.598332,-14.91409 31.6626835,-20.27059 C 20.841238,348.61096 44.816295,338.47565 68.360603,329.11064 87.719037,320.20678 99.800317,305.13052 106.89503,285.99 l 0.16722,-0.45609 0.21791,-0.43074 c 2.44261,-4.80415 3.50175,-15.96817 3.98317,-21.26893 1.40374,-15.42594 1.61659,-31.24715 1.6318,-46.72375 0.0405,-31.18125 0.19763,-62.34729 0.15709,-93.52348 -0.0253,-20.87366 -0.33954,-45.654488 8.33628,-65.180138 1.35814,-3.07606 2.92404,-6.03051 4.66224,-8.88866 C 108.02511,42.357627 92.345787,31.867586 77.016157,19.983954 60.4652,7.1577286 44.664275,-7.0570281 26.765326,-18.180538 19.376695,-22.781959 11.638384,-26.810743 3.4288015,-29.932415 -8.3788215,-32.182446 -20.885793,-33.864912 -32.931594,-33.657134 h -0.329402 c -12.040735,-0.207778 -24.552756,1.474688 -36.360387,3.724719"
       id="path2-2"
       inkscape:export-filename="C:\Users\suitedoalex\sites\brazil-national-football-team-logo-5.png"
       inkscape:export-xdpi="171.68007"
       inkscape:export-ydpi="171.68007" />
    <path
       inkscape:connector-curvature="0"
       style="fill:#005aff;fill-opacity:1;fill-rule:evenodd;stroke:none;stroke-width:1.29731858"
       d="m -65.501377,-15.834207 c -7.282222,2.898691 -14.148887,6.6538319 -20.706423,10.9309224 -15.87695,10.3532105 -29.89914,23.5848476 -44.58013,35.5191656 -13.60156,11.062677 -27.51735,20.828031 -43.50579,27.492001 1.53552,2.66051 2.92911,5.41225 4.1352,8.27548 7.69271,18.16753 7.41399,41.235478 7.39372,60.664848 -0.0354,29.01737 0.1013,58.02459 0.13682,87.04196 0.0202,14.40734 0.20271,29.13393 1.44936,43.49059 0.42567,4.92575 1.37332,15.32457 3.53721,19.78916 l 0.19257,0.40542 0.14697,0.42062 c 6.29401,17.81785 17.01716,31.85017 34.19144,40.14087 20.88885,8.71635 42.157779,18.14726 61.93175,29.18458 8.919065,4.99164 19.743567,11.47317 28.079854,18.86687 8.346415,-7.3937 19.160788,-13.87523 28.0899835,-18.86687 19.7688995,-11.03732 41.0378405,-20.46823 61.9266935,-29.18458 17.179336,-8.2907 27.902486,-22.32302 34.191436,-40.14087 l 0.15203,-0.42062 0.19257,-0.40542 c 2.16389,-4.46459 3.10647,-14.86341 3.53216,-19.78916 1.24157,-14.35666 1.43414,-29.08325 1.45441,-43.49059 0.0354,-29.01737 0.17229,-58.02459 0.13683,-87.04196 -0.0253,-19.42937 -0.30406,-42.497318 7.388633,-60.664848 1.21117,-2.86323 2.59971,-5.61497 4.14027,-8.27548 C 92.107617,51.443912 78.201987,41.678558 64.595343,30.615881 49.914354,18.681563 35.89217,5.4499259 20.020282,-4.9032846 13.462739,-9.1803751 6.5910145,-12.935516 -0.6911985,-15.834207 -11.160961,-17.927145 -22.264194,-19.503193 -32.951866,-19.310619 l -0.146961,0.0051 -0.141896,-0.0051 c -10.682607,-0.192574 -21.785825,1.383474 -32.260654,3.476412"
       id="path4-5"
       inkscape:export-filename="C:\Users\suitedoalex\sites\brazil-national-football-team-logo-5.png"
       inkscape:export-xdpi="171.68007"
       inkscape:export-ydpi="171.68007" />
    <path
       inkscape:connector-curvature="0"
       style="fill:#029c55;fill-opacity:1;fill-rule:evenodd;stroke:none;stroke-width:1.29731858"
       d="m -64.244599,345.83896 c 1.028726,0.55743 2.047322,1.11488 3.065918,1.68245 8.919065,4.99164 19.743568,11.47317 28.079854,18.86687 V 242.49435 h -31.145772 v 103.34461"
       id="path6-3"
       inkscape:export-filename="C:\Users\suitedoalex\sites\brazil-national-football-team-logo-5.png"
       inkscape:export-xdpi="171.68007"
       inkscape:export-ydpi="171.68007" />
    <path
       inkscape:connector-curvature="0"
       style="fill:#029c55;fill-opacity:1;fill-rule:evenodd;stroke:none;stroke-width:1.29731858"
       d="m -1.9479755,-16.087586 c -10.1048925,-1.966255 -20.7469705,-3.405462 -31.0038905,-3.223033 l -0.146961,0.0051 v 92.104631 h 31.1508515 v -88.886569"
       id="path8-5"
       inkscape:export-filename="C:\Users\suitedoalex\sites\brazil-national-football-team-logo-5.png"
       inkscape:export-xdpi="171.68007"
       inkscape:export-ydpi="171.68007" />
    <path
       inkscape:connector-curvature="0"
       style="fill:#009c54;fill-opacity:1;fill-rule:evenodd;stroke:none;stroke-width:1.29731858"
       d="m -162.76987,128.92324 c -0.0105,10.35321 0.005,20.70135 0.0253,31.04949 h 39.31484 v -31.04949 h -39.34018"
       id="path10-7"
       inkscape:export-filename="C:\Users\suitedoalex\sites\brazil-national-football-team-logo-5.png"
       inkscape:export-xdpi="171.68007"
       inkscape:export-ydpi="171.68007" />
    <path
       inkscape:connector-curvature="0"
       style="fill:#009c54;fill-opacity:1;fill-rule:evenodd;stroke:none;stroke-width:1.29731858"
       d="m 96.480997,191.03236 c 0.0253,-10.35321 0.0558,-20.70642 0.076,-31.05963 H 52.341755 v 31.05963 h 44.139242"
       id="path12-2"
       inkscape:export-filename="C:\Users\suitedoalex\sites\brazil-national-football-team-logo-5.png"
       inkscape:export-xdpi="171.68007"
       inkscape:export-ydpi="171.68007" />
    <path
       inkscape:connector-curvature="0"
       style="fill:#1e175e;fill-opacity:1;fill-rule:evenodd;stroke:none;stroke-width:1.29731858"
       d="m -192.98826,127.03808 c -1.05408,-45.330148 -7.07446,-64.921678 -34.56646,-88.07071 69.65992,-2.630119 97.09619,-67.105841 159.747555,-85.623029 1.195972,-0.248319 2.386866,-0.481434 3.562566,-0.694272 v 23.07302 c -1.170646,0.217898 -2.356464,0.451013 -3.562566,0.69426 -44.656145,17.4529969 -70.683595,62.40812 -118.806005,77.636413 13.93605,18.91248 15.98337,34.211722 15.7756,72.984318 l 0.0508,32.93465 h -21.62366 c -0.12675,-9.82616 -0.3142,-20.74695 -0.57771,-32.93465 z M -33.098827,-49.539156 c 10.966387,-0.603045 22.535839,0.354739 34.7134055,2.883497 62.6513635,18.517188 90.0876285,82.99291 159.7424815,85.623029 -27.48694,23.149032 -33.5073,42.740562 -34.56644,88.07071 l -0.0354,1.88516 h -22.11018 l 0.005,-1.88516 C 104.44231,88.265484 106.48965,72.966242 120.42062,54.053762 72.298337,38.825469 46.270888,-6.1296541 1.6147475,-23.582651 -11.672636,-26.278634 -23.24207,-27.530352 -33.098652,-27.352983 Z M 126.21798,159.97273 c -1.05407,80.28173 1.57603,87.35111 -3.91223,112.02042 -2.57436,14.25024 -7.54573,27.08153 -14.90396,38.49388 -13.180973,23.73687 -36.618847,40.07498 -70.303529,49.01938 -15.172542,6.16226 -28.1913245,12.77555 -39.0462365,19.83477 v -24.29431 c 15.6641065,-8.8177 36.3857215,-18.60841 62.1800735,-29.37209 18.187799,-8.70623 31.019079,-23.6406 38.493869,-44.80818 3.810873,-7.87005 5.741653,-30.12717 5.782193,-66.7663 l 0.0861,-54.12757 z M -14.718453,388.66566 c -0.293922,0.24325 -0.582778,0.4865 -0.8767,0.73482 0.293922,-0.24832 0.582778,-0.49157 0.8767,-0.73482 z m -0.917245,0.77029 c -0.613193,0.5169 -1.216233,1.0338 -1.809153,1.55577 0.59292,-0.52197 1.19596,-1.03887 1.809153,-1.55577 z m -3.719657,3.27877 c -0.273661,0.25339 -0.542245,0.5017 -0.805752,0.75509 0.263507,-0.25339 0.532091,-0.5017 0.805752,-0.75509 z m -1.723009,1.62671 c -0.253377,0.24325 -0.496624,0.4865 -0.744935,0.72974 0.248311,-0.24324 0.491558,-0.48649 0.744935,-0.72974 z m -0.836168,0.8159 c -0.243246,0.24324 -0.486492,0.49157 -0.729739,0.73988 0.243247,-0.24831 0.486493,-0.49664 0.729739,-0.73988 z m -3.212879,3.34465 c -0.228039,0.24832 -0.451025,0.50169 -0.679076,0.75509 0.228051,-0.2534 0.451037,-0.50676 0.679076,-0.75509 z m -0.734816,0.81589 c -0.233105,0.26353 -0.466221,0.52704 -0.69426,0.79057 0.228039,-0.26353 0.461155,-0.52704 0.69426,-0.79057 z m -0.744935,0.85137 c -0.714544,0.8159 -1.398673,1.63684 -2.057465,2.46795 0.658792,-0.83111 1.342921,-1.65205 2.057465,-2.46795 z m -2.128413,2.55409 c -0.21792,0.26858 -0.430752,0.53717 -0.63853,0.80576 0.207778,-0.26859 0.42061,-0.53718 0.63853,-0.80576 z m -0.658791,0.8311 c -0.207779,0.26352 -0.405415,0.52704 -0.608128,0.79055 0.202713,-0.26351 0.400349,-0.52703 0.608128,-0.79055 z m -1.327737,1.76861 c -0.192571,0.25339 -0.375,0.50676 -0.557441,0.76015 z m -0.613182,0.84124 c -0.187505,0.25845 -0.364881,0.51689 -0.542233,0.77534 0.177352,-0.25845 0.359804,-0.51691 0.542233,-0.77534 z m -0.633465,0.90711 c -0.182429,0.25844 -0.359793,0.52197 -0.537157,0.78548 0.177364,-0.26351 0.354728,-0.52704 0.537157,-0.78548 z m -0.572637,0.83616 c -0.187494,0.27873 -0.375011,0.56759 -0.55744,0.8463 -12.152229,-18.7655 -35.549558,-35.17963 -70.186953,-49.24744 -33.69483,-8.94439 -57.12764,-25.2825 -70.30859,-49.01937 -7.35823,-11.41235 -12.32959,-24.24364 -14.90395,-38.49388 -4.66732,-21.02568 -3.45109,-29.27582 -3.64366,-80.9608 h 21.40576 l 0.0354,23.06795 c 0.0456,36.63913 1.97132,58.89624 5.78726,66.76631 7.47479,21.16756 20.30102,36.10194 38.48881,44.80817 50.620758,21.11688 81.725997,38.49893 93.325861,52.13091 v 30.94815 c 0.182429,-0.27873 0.369935,-0.56757 0.557441,-0.8463"
       id="path14-6"
       inkscape:export-filename="C:\Users\suitedoalex\sites\brazil-national-football-team-logo-5.png"
       inkscape:export-xdpi="171.68007"
       inkscape:export-ydpi="171.68007" />
    <path
       inkscape:connector-curvature="0"
       style="fill:#ffd100;fill-opacity:1;fill-rule:evenodd;stroke:none;stroke-width:1.29731858"
       d="m -128.76087,191.03236 v -31.05963 h -63.64969 c 0.15709,11.85831 0.23311,22.10002 0.26858,31.05963 h 63.38111"
       id="path16-5"
       inkscape:export-filename="C:\Users\suitedoalex\sites\brazil-national-football-team-logo-5.png"
       inkscape:export-xdpi="171.68007"
       inkscape:export-ydpi="171.68007" />
    <path
       inkscape:connector-curvature="0"
       style="fill:#ffd100;fill-opacity:1;fill-rule:evenodd;stroke:none;stroke-width:1.29731858"
       d="M 115.86477,128.92324 H 59.907769 v 31.04949 h 66.310211 c 0.12156,-9.30927 0.29392,-19.62194 0.53717,-31.04949 h -10.89038"
       id="path18-8"
       inkscape:export-filename="C:\Users\suitedoalex\sites\brazil-national-football-team-logo-5.png"
       inkscape:export-xdpi="171.68007"
       inkscape:export-ydpi="171.68007" />
    <path
       inkscape:connector-curvature="0"
       style="fill:#ffd100;fill-opacity:1;fill-rule:evenodd;stroke:none;stroke-width:1.29731858"
       d="m -64.244599,68.805702 h 31.145772 V -49.539156 c -9.886986,-0.542241 -20.265529,0.182429 -31.145772,2.189225 V 68.805702"
       id="path20-7"
       inkscape:export-filename="C:\Users\suitedoalex\sites\brazil-national-football-team-logo-5.png"
       inkscape:export-xdpi="171.68007"
       inkscape:export-ydpi="171.68007" />
    <path
       inkscape:connector-curvature="0"
       style="fill:#ffd100;fill-opacity:1;fill-rule:evenodd;stroke:none;stroke-width:1.29731858"
       d="M -1.9479755,366.69741 V 252.91852 H -33.098827 v 155.83532 c 6.836262,-10.55084 17.214805,-20.35168 31.1508515,-29.41266 v -12.64377"
       id="path22-0"
       inkscape:export-filename="C:\Users\suitedoalex\sites\brazil-national-football-team-logo-5.png"
       inkscape:export-xdpi="171.68007"
       inkscape:export-ydpi="171.68007" />
    <path
       inkscape:connector-curvature="0"
       style="fill:#fffdff;fill-opacity:1;fill-rule:evenodd;stroke:none;stroke-width:1.29731858"
       d="M -97.285691,61.042052 H 31.093103 L -1.9479755,98.086589 V 128.92324 H 28.979888 L 66.13591,95.978437 V 223.97209 L 28.979888,191.03236 H -1.9479755 v 30.83159 L 31.093103,258.90847 H -97.285691 l 33.041092,-37.04452 v -30.83159 h -30.927887 l -37.150934,32.93973 V 95.978437 l 37.150934,32.944803 h 30.927887 V 98.086589 L -97.285691,61.042052"
       id="path24-7"
       inkscape:export-filename="C:\Users\suitedoalex\sites\brazil-national-football-team-logo-5.png"
       inkscape:export-xdpi="171.68007"
       inkscape:export-ydpi="171.68007" />
    <path
       inkscape:connector-curvature="0"
       style="fill:#009c54;fill-opacity:1;fill-rule:evenodd;stroke:none;stroke-width:1.29731858"
       d="m -33.098827,-140.53895 7.560924,23.34667 24.6034585,-0.0456 -19.9310645,14.37692 7.652138,23.316257 -19.885456,-14.452939 -19.875321,14.452939 7.652145,-23.316247 -19.936127,-14.37692 24.603431,0.0455 7.555872,-23.34667"
       id="path26-0"
       inkscape:export-filename="C:\Users\suitedoalex\sites\brazil-national-football-team-logo-5.png"
       inkscape:export-xdpi="171.68007"
       inkscape:export-ydpi="171.68007" />
    <path
       inkscape:connector-curvature="0"
       style="fill:#009c54;fill-opacity:1;fill-rule:evenodd;stroke:none;stroke-width:1.29731858"
       d="m -123.42463,-120.80046 7.55586,23.351736 24.608523,-0.04562 -19.936123,14.376938 7.65213,23.321316 -19.88039,-14.463069 -19.8804,14.463069 7.65216,-23.321316 -19.93615,-14.376926 24.60852,0.04562 7.55587,-23.351738"
       id="path28-6"
       inkscape:export-filename="C:\Users\suitedoalex\sites\brazil-national-football-team-logo-5.png"
       inkscape:export-xdpi="171.68007"
       inkscape:export-ydpi="171.68007" />
    <path
       inkscape:connector-curvature="0"
       style="fill:#009c54;fill-opacity:1;fill-rule:evenodd;stroke:none;stroke-width:1.29731858"
       d="m -197.29071,-64.453243 7.55587,23.346659 24.60851,-0.04567 -19.93614,14.376975 7.64708,23.3162681 -19.87532,-14.4529341 -19.87532,14.4529341 7.64708,-23.3162681 -19.93614,-14.376923 24.60346,0.04561 7.56092,-23.346663"
       id="path30-6"
       inkscape:export-filename="C:\Users\suitedoalex\sites\brazil-national-football-team-logo-5.png"
       inkscape:export-xdpi="171.68007"
       inkscape:export-ydpi="171.68007" />
    <path
       inkscape:connector-curvature="0"
       style="fill:#009c54;fill-opacity:1;fill-rule:evenodd;stroke:none;stroke-width:1.29731858"
       d="m 57.232049,-120.80046 -7.555869,23.351736 -24.603453,-0.04562 19.931069,14.376926 -7.647083,23.321328 19.875336,-14.463069 19.885458,14.463069 -7.65216,-23.321328 19.93614,-14.376926 -24.60851,0.04562 -7.560928,-23.351736"
       id="path32-4"
       inkscape:export-filename="C:\Users\suitedoalex\sites\brazil-national-football-team-logo-5.png"
       inkscape:export-xdpi="171.68007"
       inkscape:export-ydpi="171.68007" />
    <path
       inkscape:connector-curvature="0"
       style="fill:#009c54;fill-opacity:1;fill-rule:evenodd;stroke:none;stroke-width:1.29731858"
       d="m 131.10318,-64.453243 -7.55585,23.346659 -24.608523,-0.04567 19.931073,14.376924 -7.64709,23.3162681 19.88039,-14.4529481 19.87534,14.4529481 -7.64709,-23.3162681 19.93107,-14.376924 -24.59837,0.04567 -7.56095,-23.346659"
       id="path34-7"
       inkscape:export-filename="C:\Users\suitedoalex\sites\brazil-national-football-team-logo-5.png"
       inkscape:export-xdpi="171.68007"
       inkscape:export-ydpi="171.68007" />
    <path
       inkscape:connector-curvature="0"
       style="fill:#211c5e;fill-opacity:1;fill-rule:nonzero;stroke:none;stroke-width:1.29731858"
       d="m -84.520289,163.01333 c 0,2.48821 0.152038,4.51021 0.451025,6.07612 0.298999,1.56083 0.861505,2.79733 1.69766,3.6943 0.826025,0.89698 1.961179,1.51017 3.390255,1.82943 1.429088,0.32432 3.253448,0.48143 5.468004,0.48143 0.739881,0 1.515231,0 2.32606,0 0.805753,0 1.702726,0 2.695984,0 0.993258,0 2.133478,-0.0105 3.430788,-0.0303 1.287192,-0.0253 2.792281,-0.0608 4.500083,-0.10634 l -1.86997,9.59811 c -2.863217,0.0912 -5.148721,0.13683 -6.851458,0.13683 -1.712867,0 -3.329449,0 -4.849745,0 -4.109853,0 -7.586263,-0.38008 -10.419089,-1.13515 -2.842944,-0.76521 -5.13859,-1.99665 -6.897068,-3.69939 -1.7534,-1.70272 -3.010178,-3.94769 -3.770332,-6.72983 -0.760154,-2.78721 -1.145284,-6.22814 -1.145284,-10.3228 v -5.73152 c 0,-4.04904 0.405414,-7.44944 1.211167,-10.21131 0.810818,-2.76694 2.092933,-5.01191 3.846333,-6.73491 1.753424,-1.72806 4.04907,-2.96964 6.892003,-3.72472 2.832826,-0.76522 6.263626,-1.1453 10.28227,-1.1453 0.689194,0 1.454425,0 2.28045,0 0.836155,0 1.768608,0 2.807476,0 1.038869,0 2.214556,0.0152 3.532151,0.0354 1.312518,0.0253 2.827749,0.0558 4.535551,0.10633 l -1.86997,9.59307 c -1.707791,-0.0456 -3.496671,-0.0811 -5.366641,-0.10131 -1.869959,-0.0253 -3.684177,-0.0354 -5.43759,-0.0354 -2.260166,0 -4.094656,0.16217 -5.503472,0.48141 -1.408803,0.32941 -2.518619,0.92233 -3.324372,1.79903 -0.810829,0.87164 -1.347998,2.09293 -1.626724,3.65885 -0.273637,1.5659 -0.415545,3.61323 -0.415545,6.14199 z m 32.412703,-27.61363 h 22.64733 c 5.17407,0 8.944402,1.01354 11.321126,3.03552 2.376725,2.02706 3.567631,5.08793 3.567631,9.18258 v 0.76015 c 0,5.06259 -2.032139,8.44778 -6.091316,10.1505 2.351387,0.78043 4.185877,2.09294 5.503461,3.9325 1.312517,1.83956 1.976385,4.28216 1.976385,7.31769 v 1.24665 c 0,4.73825 -1.444282,8.17918 -4.332837,10.31772 -2.883501,2.14361 -7.074444,3.21289 -12.567773,3.21289 h -22.024007 z m 10.738348,40.45505 h 10.454557 c 2.447672,0 4.170681,-0.40034 5.158874,-1.2061 0.993259,-0.81082 1.489882,-2.29057 1.489882,-4.45446 v -0.89698 c 0,-2.20949 -0.516884,-3.73993 -1.56083,-4.59129 -1.033803,-0.85136 -2.822672,-1.27704 -5.366641,-1.27704 h -10.175842 z m 0,-31.75897 v 10.70288 h 9.623467 c 2.260177,0 3.856475,-0.41554 4.783862,-1.24157 0.917246,-0.83109 1.378401,-2.14362 1.378401,-3.9325 v -0.83109 c 0,-1.65712 -0.425687,-2.85308 -1.27705,-3.59297 -0.856428,-0.7348 -2.32606,-1.10475 -4.398721,-1.10475 z M 6.768377,184.5559 h -11.42756 v -49.1562 h 34.829964 l -1.799018,9.59306 H 6.768377 v 10.77384 h 20.564519 l -1.799017,9.59811 H 6.768377 v 19.19119"
       id="path36-7"
       inkscape:export-filename="C:\Users\suitedoalex\sites\brazil-national-football-team-logo-5.png"
       inkscape:export-xdpi="171.68007"
       inkscape:export-ydpi="171.68007" />
    <g
       transform="translate(73.869334,546.89538)"
       id="surface1-0"
       inkscape:export-filename="G:\Users\suitedoalex\sites\cbf-logo-selecao-logo-brasil-14.png"
       inkscape:export-xdpi="16.06452"
       inkscape:export-ydpi="16.06452">
      <path
         inkscape:connector-curvature="0"
         style="fill:#ffd100;fill-opacity:1;fill-rule:evenodd;stroke:none"
         d="m 123.75391,85.757812 c -6.32422,2.40625 -12.29297,5.511719 -17.98828,9.058594 C 91.972656,103.39063 79.792969,114.34766 67.035156,124.23438 55.214844,133.39453 43.132812,141.48047 29.238281,147 c 1.335938,2.20312 2.539063,4.48047 3.59375,6.85156 6.683594,15.05078 6.4375,34.15235 6.417969,50.24219 -0.02734,24.03125 0.09375,48.05469 0.125,72.08984 0.01563,11.92969 0.179688,24.125 1.257812,36.01563 0.371094,4.08594 1.191407,12.6914 3.066407,16.39453 l 0.175781,0.33203 0.128906,0.35156 c 5.464844,14.75391 14.78125,26.375 29.703125,33.23828 18.148438,7.21875 36.624999,15.03125 53.800779,24.17579 7.75391,4.1289 17.15235,9.5 24.39844,15.625 7.24609,-6.125 16.64844,-11.4961 24.40625,-15.625 17.17187,-9.14454 35.65234,-16.95704 53.80078,-24.17579 14.92188,-6.86328 24.23438,-18.48437 29.70313,-33.23828 l 0.1289,-0.35156 0.16797,-0.33203 c 1.88281,-3.70313 2.69922,-12.30859 3.07031,-16.39453 1.08203,-11.89063 1.2461,-24.08594 1.25782,-36.01563 0.0312,-24.03515 0.15234,-48.05859 0.12109,-72.08984 -0.0195,-16.08984 -0.26172,-35.19141 6.42578,-50.24219 1.04688,-2.37109 2.25391,-4.64844 3.59375,-6.85156 -13.89453,-5.51953 -25.98047,-13.60547 -37.79687,-22.76562 -12.75782,-9.88672 -24.9375,-20.84375 -38.73438,-29.417974 -5.69531,-3.546875 -11.66016,-6.652344 -17.98828,-9.058594 -9.10156,-1.734374 -18.74219,-3.03125 -28.02734,-2.871093 h -0.25391 C 142.5,82.726562 132.85547,84.023438 123.75391,85.757812"
         id="path2-7" />
      <path
         inkscape:connector-curvature="0"
         style="fill:#005aff;fill-opacity:1;fill-rule:evenodd;stroke:none"
         d="m 126.92969,96.625 c -5.61328,2.234375 -10.90625,5.12891 -15.96094,8.42578 -12.238281,7.98047 -23.046875,18.17969 -34.363281,27.37891 -10.484375,8.52734 -21.210938,16.05468 -33.535157,21.1914 1.183594,2.05078 2.257813,4.17188 3.1875,6.37891 5.929688,14.00391 5.714844,31.78516 5.699219,46.76172 -0.02734,22.36719 0.07813,44.72656 0.105469,67.09375 0.01563,11.10547 0.15625,22.45703 1.117188,33.52344 0.328124,3.79687 1.058593,11.8125 2.726562,15.2539 l 0.148438,0.3125 0.113281,0.32422 c 4.851562,13.73438 13.117187,24.55078 26.355469,30.94141 16.101562,6.71875 32.496092,13.98828 47.738282,22.49609 6.875,3.84766 15.21875,8.84375 21.64453,14.54297 6.43359,-5.69922 14.76953,-10.69531 21.65234,-14.54297 15.23828,-8.50781 31.63282,-15.77734 47.73438,-22.49609 13.24219,-6.39063 21.50781,-17.20703 26.35547,-30.94141 l 0.11718,-0.32422 0.14844,-0.3125 c 1.66797,-3.4414 2.39453,-11.45703 2.72266,-15.2539 0.95703,-11.06641 1.10547,-22.41797 1.12109,-33.52344 0.0273,-22.36719 0.13281,-44.72656 0.10547,-67.09375 -0.0195,-14.97656 -0.23437,-32.75781 5.69531,-46.76172 0.9336,-2.20703 2.00391,-4.32813 3.19141,-6.37891 -12.33203,-5.13672 -23.05078,-12.66406 -33.53906,-21.1914 -11.31641,-9.19922 -22.125,-19.39844 -34.35938,-27.37891 C 187.79687,101.75391 182.5,98.859375 176.88672,96.625 168.81641,95.011719 160.25781,93.796875 152.01953,93.945312 l -0.11328,0.0039 -0.10938,-0.0039 C 143.5625,93.796875 135.00391,95.011719 126.92969,96.625"
         id="path4-8" />
      <path
         inkscape:connector-curvature="0"
         style="fill:#029c55;fill-opacity:1;fill-rule:evenodd;stroke:none"
         d="m 127.89844,375.41016 c 0.79297,0.42968 1.57812,0.85937 2.36328,1.29687 6.875,3.84766 15.21875,8.84375 21.64453,14.54297 v -95.5 h -24.00781 v 79.66016"
         id="path6-38" />
      <path
         inkscape:connector-curvature="0"
         style="fill:#029c55;fill-opacity:1;fill-rule:evenodd;stroke:none"
         d="m 175.91797,96.429688 c -7.78906,-1.515626 -15.99219,-2.625 -23.89844,-2.484376 l -0.11328,0.0039 V 164.9453 h 24.01172 V 96.429688"
         id="path8-2" />
      <path
         inkscape:connector-curvature="0"
         style="fill:#009c54;fill-opacity:1;fill-rule:evenodd;stroke:none"
         d="m 51.953125,208.20703 c -0.0078,7.98047 0.0039,15.95703 0.01953,23.93359 H 82.277344 V 208.20703 H 51.953125"
         id="path10-0" />
      <path
         inkscape:connector-curvature="0"
         style="fill:#009c54;fill-opacity:1;fill-rule:evenodd;stroke:none"
         d="m 251.78906,256.08203 c 0.0195,-7.98047 0.043,-15.96094 0.0586,-23.94141 h -34.08204 v 23.94141 h 34.02344"
         id="path12-6" />
      <path
         inkscape:connector-curvature="0"
         style="fill:#1e175e;fill-opacity:1;fill-rule:evenodd;stroke:none"
         d="m 28.660156,206.75391 c -0.8125,-34.94141 -5.453125,-50.04297 -26.644531,-67.88672 53.695313,-2.02735 74.84375,-51.726565 123.136715,-66.000002 0.92188,-0.191407 1.83985,-0.371094 2.7461,-0.535157 v 17.785157 c -0.90235,0.167968 -1.81641,0.347656 -2.7461,0.535156 -34.421871,13.453126 -54.484371,48.105466 -91.578121,59.843746 10.742187,14.57813 12.320312,26.3711 12.160156,56.25782 l 0.03906,25.38671 H 29.105469 c -0.09766,-7.57421 -0.242188,-15.99218 -0.445313,-25.38671 z M 151.90625,70.644531 c 8.45312,-0.464843 17.37109,0.273438 26.75781,2.222657 48.29297,14.273437 69.44141,63.972652 123.13281,66.000002 -21.1875,17.84375 -25.82812,32.94531 -26.64453,67.88672 l -0.0273,1.45312 h -17.04297 l 0.004,-1.45312 c -0.16016,-29.88672 1.41797,-41.67969 12.15625,-56.25782 C 233.14857,138.75781 213.08607,104.10547 178.66419,90.652344 168.422,88.574219 159.50404,87.609375 151.90638,87.746094 Z M 274.71094,232.14062 c -0.8125,61.88282 1.21484,67.33204 -3.01563,86.34766 -1.98437,10.98438 -5.8164,20.875 -11.48828,29.67188 -10.16016,18.29687 -28.22656,30.89062 -54.19141,37.78515 -11.69531,4.75 -21.73046,9.84766 -30.09765,15.28906 v -18.72656 c 12.07422,-6.79687 28.04687,-14.34375 47.92969,-22.64062 14.01953,-6.71094 23.91015,-18.22266 29.67187,-34.53907 2.9375,-6.0664 4.42578,-23.22265 4.45703,-51.46484 l 0.0664,-41.72266 z M 166.07422,408.42187 c -0.22656,0.1875 -0.44922,0.375 -0.67578,0.56641 0.22656,-0.19141 0.44922,-0.37891 0.67578,-0.56641 z m -0.70703,0.59375 c -0.47266,0.39844 -0.9375,0.79688 -1.39453,1.19922 0.45703,-0.40234 0.92187,-0.80078 1.39453,-1.19922 z M 162.5,411.54297 c -0.21094,0.19531 -0.41797,0.38672 -0.62109,0.58203 0.20312,-0.19531 0.41015,-0.38672 0.62109,-0.58203 z m -1.32813,1.2539 c -0.19531,0.1875 -0.38281,0.375 -0.57421,0.5625 0.1914,-0.1875 0.3789,-0.375 0.57421,-0.5625 z m -0.64453,0.62891 c -0.1875,0.1875 -0.375,0.37891 -0.5625,0.57031 0.1875,-0.1914 0.375,-0.38281 0.5625,-0.57031 z m -2.47656,2.57813 c -0.17578,0.1914 -0.34766,0.38671 -0.52344,0.58203 0.17578,-0.19532 0.34766,-0.39063 0.52344,-0.58203 z m -0.56641,0.6289 c -0.17968,0.20313 -0.35937,0.40625 -0.53515,0.60938 0.17578,-0.20313 0.35547,-0.40625 0.53515,-0.60938 z m -0.57421,0.65625 c -0.55079,0.62891 -1.07813,1.26172 -1.58594,1.90235 0.50781,-0.64063 1.03515,-1.27344 1.58594,-1.90235 z m -1.64063,1.96875 c -0.16797,0.20703 -0.33203,0.41406 -0.49219,0.6211 0.16016,-0.20704 0.32422,-0.41407 0.49219,-0.6211 z m -0.50781,0.64063 c -0.16016,0.20312 -0.3125,0.40625 -0.46875,0.60937 0.15625,-0.20312 0.30859,-0.40625 0.46875,-0.60937 z m -1.02344,1.36328 c -0.14844,0.19531 -0.28906,0.39062 -0.42969,0.58594 z m -0.47266,0.64844 c -0.14453,0.19921 -0.28125,0.39843 -0.41796,0.59765 0.13671,-0.19922 0.27734,-0.39844 0.41796,-0.59765 z m -0.48828,0.69921 c -0.14062,0.19922 -0.27734,0.40235 -0.41406,0.60547 0.13672,-0.20312 0.27344,-0.40625 0.41406,-0.60547 z m -0.4414,0.64454 c -0.14453,0.21484 -0.28907,0.4375 -0.42969,0.65234 C 142.53906,409.44141 124.50391,396.78906 97.804688,385.94531 71.832031,379.05078 53.769531,366.45703 43.609375,348.16016 37.9375,339.36328 34.105469,329.47266 32.121094,318.48828 28.523438,302.28125 29.460938,295.92187 29.3125,256.08203 h 16.5 l 0.02734,17.78125 c 0.03516,28.24219 1.519531,45.39844 4.460937,51.46484 5.761719,16.31641 15.648438,27.82813 29.667969,34.53907 39.019534,16.27734 62.996094,29.67578 71.937504,40.18359 v 23.85547 c 0.14062,-0.21484 0.28516,-0.4375 0.42969,-0.65234"
         id="path14-0" />
      <path
         inkscape:connector-curvature="0"
         style="fill:#ffd100;fill-opacity:1;fill-rule:evenodd;stroke:none"
         d="m 78.167969,256.08203 v -23.94141 h -49.0625 c 0.121093,9.14063 0.179687,17.03516 0.207031,23.94141 h 48.855469"
         id="path16-2" />
      <path
         inkscape:connector-curvature="0"
         style="fill:#ffd100;fill-opacity:1;fill-rule:evenodd;stroke:none"
         d="m 266.73047,208.20703 h -43.13281 v 23.93359 h 51.11328 c 0.0937,-7.17578 0.22656,-15.125 0.41406,-23.93359 h -8.39453"
         id="path18-9" />
      <path
         inkscape:connector-curvature="0"
         style="fill:#ffd100;fill-opacity:1;fill-rule:evenodd;stroke:none"
         d="m 127.89844,161.86719 h 24.00781 V 70.644531 c -7.62109,-0.417969 -15.62109,0.140625 -24.00781,1.6875 v 89.535159"
         id="path20-4" />
      <path
         inkscape:connector-curvature="0"
         style="fill:#ffd100;fill-opacity:1;fill-rule:evenodd;stroke:none"
         d="m 175.91797,391.48828 v -87.70312 h -24.01172 v 120.12109 c 5.26953,-8.13281 13.26953,-15.6875 24.01172,-22.67188 v -9.74609"
         id="path22-4" />
      <path
         inkscape:connector-curvature="0"
         style="fill:#fffdff;fill-opacity:1;fill-rule:evenodd;stroke:none"
         d="m 102.42969,155.88281 h 98.95703 l -25.46875,28.55469 v 23.76953 h 23.83984 l 28.64063,-25.39453 v 98.66016 l -28.64063,-25.39063 h -23.83984 v 23.76563 l 25.46875,28.55468 h -98.95703 l 25.46875,-28.55468 V 256.08203 H 104.05859 L 75.421875,281.47266 V 182.8125 l 28.636715,25.39453 h 23.83985 V 184.4375 l -25.46875,-28.55469"
         id="path24-4" />
      <path
         inkscape:connector-curvature="0"
         style="fill:#211c5e;fill-opacity:1;fill-rule:nonzero;stroke:none"
         d="m 112.26953,234.48437 c 0,1.91797 0.11719,3.47657 0.34766,4.6836 0.23047,1.20312 0.66406,2.15625 1.30859,2.84765 0.63672,0.69141 1.51172,1.16407 2.61328,1.41016 1.10157,0.25 2.50782,0.37109 4.21485,0.37109 0.57031,0 1.16797,0 1.79297,0 0.62109,0 1.3125,0 2.07812,0 0.76563,0 1.64453,-0.008 2.64453,-0.0234 0.99219,-0.0195 2.15234,-0.0469 3.46875,-0.082 l -1.44141,7.39843 c -2.20703,0.0703 -3.96874,0.10547 -5.28124,0.10547 -1.32032,0 -2.56641,0 -3.73829,0 -3.16796,0 -5.84765,-0.29297 -8.03125,-0.875 -2.1914,-0.58984 -3.96093,-1.53906 -5.3164,-2.85156 -1.35156,-1.3125 -2.32031,-3.04297 -2.90625,-5.1875 -0.58594,-2.14844 -0.88281,-4.80078 -0.88281,-7.95703 v -4.41797 c 0,-3.12109 0.3125,-5.74219 0.93359,-7.87109 0.625,-2.13282 1.61328,-3.86329 2.96484,-5.19141 1.35157,-1.33203 3.1211,-2.28906 5.3125,-2.87109 2.1836,-0.58985 4.82813,-0.88282 7.92578,-0.88282 0.53125,0 1.1211,0 1.75782,0 0.64453,0 1.36328,0 2.16406,0 0.80078,0 1.70703,0.0117 2.72266,0.0273 1.01171,0.0195 2.17968,0.043 3.49609,0.082 l -1.44141,7.39453 c -1.3164,-0.0352 -2.69531,-0.0625 -4.13672,-0.0781 -1.4414,-0.0195 -2.83984,-0.0273 -4.1914,-0.0273 -1.74219,0 -3.15625,0.125 -4.24219,0.37109 -1.08594,0.25391 -1.94141,0.71094 -2.5625,1.38672 -0.625,0.67188 -1.03906,1.61328 -1.25391,2.82032 -0.21093,1.20703 -0.32031,2.78515 -0.32031,4.73437 z m 24.98438,-21.28515 h 17.45703 c 3.98828,0 6.89453,0.78125 8.72656,2.33984 1.83203,1.5625 2.75,3.92188 2.75,7.07813 v 0.58593 c 0,3.90235 -1.56641,6.51172 -4.69531,7.82422 1.8125,0.60157 3.22656,1.61328 4.24218,3.03125 1.01172,1.41797 1.52344,3.30078 1.52344,5.64063 v 0.96094 c 0,3.65234 -1.11328,6.30468 -3.33984,7.95312 -2.22266,1.65234 -5.45313,2.47656 -9.6875,2.47656 h -16.97656 z m 8.27734,31.18359 h 8.05859 c 1.88672,0 3.21485,-0.30859 3.97657,-0.92969 0.76562,-0.625 1.14843,-1.76562 1.14843,-3.43359 v -0.69141 c 0,-1.70312 -0.39843,-2.88281 -1.20312,-3.53906 -0.79688,-0.65625 -2.17578,-0.98437 -4.13672,-0.98437 h -7.84375 z m 0,-24.48047 v 8.25 h 7.41797 c 1.74219,0 2.97265,-0.32031 3.6875,-0.95703 0.70703,-0.64062 1.0625,-1.65234 1.0625,-3.03125 v -0.64062 c 0,-1.27735 -0.32813,-2.19922 -0.98438,-2.76953 -0.66015,-0.56641 -1.79297,-0.85157 -3.39062,-0.85157 z m 37.10547,31.1875 h -8.8086 v -37.89062 h 26.84766 l -1.38672,7.39453 h -16.65234 v 8.30469 h 15.85156 l -1.38672,7.39843 h -14.46484 v 14.79297"
         id="path36-77" />
    </g>
  </g>
</svg>
